<svg xmlns="http://www.w3.org/2000/svg" xmlns:xlink="http://www.w3.org/1999/xlink" width="500" zoomAndPan="magnify" viewBox="0 0 375 374.999991" height="500" preserveAspectRatio="xMidYMid meet" version="1.0"><defs><clipPath id="4230ed1fb6"><path d="M 157 27.035156 L 319 27.035156 L 319 254 L 157 254 Z M 157 27.035156 " clip-rule="nonzero"/></clipPath><clipPath id="f37a3f73fc"><path d="M 112 290 L 372.757812 290 L 372.757812 348.035156 L 112 348.035156 Z M 112 290 " clip-rule="nonzero"/></clipPath><clipPath id="8efaf1019c"><path d="M 2.257812 118 L 165 118 L 165 348.035156 L 2.257812 348.035156 Z M 2.257812 118 " clip-rule="nonzero"/></clipPath></defs><g clip-path="url(#4230ed1fb6)"><path fill="#3dbdec" d="M 318.382812 253.683594 L 187.558594 27.058594 L 157.644531 78.882812 L 257.324219 253.683594 L 318.382812 253.683594 " fill-opacity="1" fill-rule="nonzero"/></g><g clip-path="url(#f37a3f73fc)"><path fill="#2056ae" d="M 339.886719 290.9375 L 144.871094 290.9375 L 112.578125 348.007812 L 372.828125 348.007812 L 339.886719 290.9375 " fill-opacity="1" fill-rule="nonzero"/></g><g clip-path="url(#8efaf1019c)"><path fill="#2f8cc4" d="M 134.769531 118.511719 L 2.292969 348.007812 L 63.105469 348.007812 L 164.78125 172.21875 L 134.769531 118.511719 " fill-opacity="1" fill-rule="nonzero"/></g></svg>